<?xml version="1.0" encoding="UTF-8"?>
<svg width="32px" height="19px" viewBox="0 0 32 19" version="1.1" xmlns="http://www.w3.org/2000/svg" xmlns:xlink="http://www.w3.org/1999/xlink">
    <!-- Generator: Sketch 48.1 (47250) - http://www.bohemiancoding.com/sketch -->
    <title>hat</title>
    <desc>Created with Sketch.</desc>
    <defs>
        <polygon id="path-1" points="0.0615384615 0.480846154 25.6876308 0.480846154 25.6876308 12.9007077 0.0615384615 12.9007077"></polygon>
    </defs>
    <g id="main" stroke="none" stroke-width="1" fill="none" fill-rule="evenodd" transform="translate(-110.000000, -10.000000)">
        <g id="hat" transform="translate(110.000000, 10.000000)">
            <g id="Group-3" transform="translate(2.953846, 0.000000)">
                <mask id="mask-2" fill="white">
                    <use xlink:href="#path-1"></use>
                </mask>
                <g id="Clip-2"></g>
                <path d="M0.0615384615,9.10704103 L0.0615384615,12.0335282 L21.7452308,12.9007077 L21.7452308,10.5164513 C23.6066462,11.6004256 24.7020308,12.5752718 24.7020308,12.5752718 L25.6876308,11.6004256 C25.6876308,11.6004256 24.8113231,7.5899641 19.4451692,3.90493846 C12.1078154,-1.08036923 1.92295385,-1.62211282 0.0615384615,9.10704103" id="Fill-1" fill="#E11E2B" mask="url(#mask-2)"></path>
            </g>
            <path d="M24.6990277,12.9005128 L24.6990277,10.5162564 C22.94592,9.54092308 20.6473354,8.4574359 17.9086277,8.02335897 C16.8132431,7.8065641 15.8276431,7.69841026 14.9518277,7.58976923 C19.7710277,8.99869231 21.6324431,10.5162564 24.6990277,12.9005128" id="Fill-4" fill="#A51D2D"></path>
            <path d="M24.6990277,12.5753205 C26.8893046,14.6346282 27.2181662,19.6194487 25.2459815,18.8613974 C24.5892431,18.6446026 22.6180431,17.1270385 19.7710277,16.1517051 C15.8276431,14.7432692 10.5712738,14.8514231 6.62887385,16.3685 C4.10973538,17.3443205 2.24782769,18.6446026 1.59108923,18.8613974 C-0.379618462,19.6194487 0.0575507692,14.6346282 2.13853538,12.5753205 C4.10973538,10.7328077 9.03822769,9.10708974 13.8569354,9.21573077 C18.4565662,9.21573077 22.94592,10.8409615 24.6990277,12.5753205" id="Fill-6" fill="#FFFFFF"></path>
            <path d="M26.5605908,16.6934974 C26.6703754,18.1024205 26.2327138,19.2945487 25.2461292,18.8614462 C24.5893908,18.6441641 22.6181908,17.1270872 19.7711754,16.1517538 C15.8277908,14.7433179 10.5709292,14.8514718 6.62902154,16.3685487 C4.10939077,17.3438821 2.24797538,18.6441641 1.59123692,18.8614462 C0.605636923,19.2945487 0.167483077,18.1024205 0.38656,16.6934974 C0.496344615,17.4525231 0.825206154,17.9942667 1.59123692,17.6688308 C7.28576,15.5013692 8.49043692,14.8514718 13.7472985,14.8514718 C19.1134523,14.8514718 19.88096,15.6095231 25.2461292,17.6688308 C26.0136369,17.9942667 26.3415138,17.4525231 26.5605908,16.6934974" id="Fill-8" fill="#E0E0E0"></path>
            <path d="M28.6413292,8.67359744 C30.8316062,8.67359744 31.5981292,9.97436667 31.5981292,11.6000846 C31.5981292,13.2253154 30.7223138,14.5260846 28.6413292,14.5260846 C26.5603446,14.5260846 25.6845292,13.2253154 25.6845292,11.6000846 C25.6845292,9.97436667 26.4510523,8.67359744 28.6413292,8.67359744" id="Fill-10" fill="#E0E0E0"></path>
            <path d="M28.6413292,8.67359744 C29.5171446,8.67359744 30.0655754,8.89039231 30.6135138,9.21582821 C30.8316062,9.64893077 30.9413908,10.1906744 30.9413908,10.841059 C30.9413908,12.4667769 30.0655754,13.7675462 27.9845908,13.7675462 C27.1077908,13.7675462 26.5603446,13.5507513 26.0133908,13.2253154 C25.7943138,12.6835718 25.6845292,12.1418282 25.6845292,11.6000846 C25.6845292,9.97436667 26.4510523,8.67359744 28.6413292,8.67359744" id="Fill-12" fill="#FFFFFF"></path>
        </g>
    </g>
</svg>